<?xml version="1.0" standalone="no"?>
<!DOCTYPE svg PUBLIC "-//W3C//DTD SVG 20010904//EN"
 "http://www.w3.org/TR/2001/REC-SVG-20010904/DTD/svg10.dtd">
<svg version="1.0" xmlns="http://www.w3.org/2000/svg"
 width="1024.000000pt" height="1024.000000pt" viewBox="0 0 1024.000000 1024.000000"
 preserveAspectRatio="xMidYMid meet">
<metadata>
Created by potrace 1.11, written by Peter Selinger 2001-2013
</metadata>
<g transform="translate(0.000000,1024.000000) scale(0.100000,-0.100000)"
fill="#000000" stroke="none">
<path d="M2399 10236 c-3 -3 -53 -10 -159 -21 -14 -1 -38 -5 -55 -9 -63 -14
-81 -17 -100 -20 -30 -5 -217 -65 -237 -76 -10 -6 -22 -10 -28 -10 -11 0 -238
-109 -255 -122 -19 -16 -86 -58 -91 -58 -3 0 -10 -5 -17 -10 -7 -6 -43 -34
-82 -62 -92 -68 -269 -245 -353 -353 -72 -93 -190 -302 -231 -410 -13 -33 -27
-69 -32 -80 -27 -61 -72 -230 -85 -318 -7 -47 -12 -72 -14 -72 -12 0 -15 -629
-15 -3485 0 -3055 2 -3471 19 -3520 3 -8 7 -33 10 -55 2 -22 7 -47 10 -55 3
-8 7 -28 10 -45 3 -16 14 -61 26 -100 12 -38 23 -74 24 -80 4 -12 9 -26 49
-125 35 -87 116 -243 129 -248 4 -2 8 -8 8 -12 0 -12 62 -104 72 -108 4 -2 8
-10 8 -17 0 -7 3 -15 8 -17 4 -1 25 -25 47 -53 68 -86 260 -272 321 -311 16
-10 31 -21 34 -24 12 -14 99 -70 109 -70 6 0 11 -4 11 -8 0 -4 15 -15 33 -23
17 -9 59 -30 92 -47 131 -68 305 -133 420 -156 6 -2 35 -8 65 -14 85 -18 110
-22 185 -30 86 -9 6818 -10 6860 -1 17 4 37 8 45 10 38 9 159 79 198 114 41
37 112 134 116 158 1 7 7 21 13 32 6 11 11 23 12 28 1 4 1 8 2 10 10 33 13 80
15 282 3 154 0 254 -7 280 -24 87 -76 177 -143 248 -20 21 -38 50 -41 65 -23
117 -38 324 -39 534 -1 75 -4 134 -8 131 -5 -2 -4 7 2 21 5 14 6 27 2 30 -8 5
-8 64 1 72 3 3 2 16 -3 29 -5 13 -6 26 -3 29 3 3 7 65 8 138 3 120 12 276 20
317 1 9 6 44 10 78 6 53 11 65 38 85 64 48 87 70 87 83 0 7 7 16 16 19 8 3 12
10 9 16 -3 5 -1 10 6 10 7 0 9 3 6 7 -4 3 -3 11 2 17 5 6 16 38 25 71 14 54
16 399 15 3470 -1 3469 0 3448 -32 3540 -40 113 -110 194 -212 245 -124 62
125 58 -3571 59 -1860 0 -3383 -1 -3385 -3z m2811 -1278 c0 4 29 7 65 7 36 0
65 -3 65 -7 0 -4 12 -3 28 1 15 5 36 5 47 1 11 -4 24 -5 29 -2 13 7 136 8 136
0 0 -4 12 -3 28 1 15 5 36 5 47 1 11 -4 24 -5 29 -2 12 7 66 9 66 2 0 -3 22
-6 49 -7 58 -2 122 -31 172 -75 43 -39 79 -90 79 -111 0 -9 4 -17 9 -19 6 -1
12 -34 15 -72 4 -37 9 -72 12 -77 3 -5 1 -9 -5 -9 -6 0 -6 -11 -1 -30 5 -17 5
-30 0 -30 -5 0 -5 -13 0 -29 4 -15 4 -34 0 -42 -5 -7 -5 -20 0 -29 5 -9 5 -22
0 -30 -5 -8 -6 -18 -3 -23 8 -13 9 -97 1 -97 -4 0 -3 -13 2 -30 5 -18 5 -32
-1 -36 -5 -3 -6 -12 0 -21 5 -9 5 -29 1 -45 -5 -15 -5 -30 0 -33 5 -3 5 -16 0
-30 -6 -15 -6 -27 0 -30 5 -3 6 -13 3 -23 -4 -9 -6 -32 -5 -52 1 -19 2 -41 2
-47 0 -7 0 -20 0 -28 0 -8 0 -22 0 -30 0 -8 0 -22 0 -30 0 -8 0 -22 0 -30 0
-8 0 -22 0 -30 0 -8 0 -22 0 -30 0 -8 0 -22 0 -30 0 -39 4 -46 22 -42 10 3 21
1 24 -4 4 -6 10 -6 17 -1 7 5 21 6 32 2 11 -4 30 -4 43 1 14 5 22 5 22 -2 0
-6 7 -6 19 1 14 7 22 7 26 0 4 -7 11 -7 18 -2 7 5 21 6 32 2 11 -4 30 -4 43 1
14 5 22 5 22 -2 0 -6 7 -6 19 1 14 7 22 7 26 0 4 -7 11 -7 18 -2 7 5 21 6 32
2 11 -4 30 -4 43 1 14 5 22 5 22 -2 0 -6 7 -6 19 1 14 7 22 7 26 0 4 -7 11 -7
18 -2 7 5 21 6 32 2 11 -4 30 -4 43 1 14 5 22 5 22 -2 0 -6 7 -6 19 1 14 7 22
7 26 0 4 -7 11 -7 18 -2 7 5 21 6 32 2 11 -4 30 -4 43 1 14 5 22 5 22 -2 0 -6
7 -6 19 1 14 7 22 7 26 0 4 -7 11 -7 18 -2 7 5 21 6 32 2 11 -4 30 -4 41 1 12
4 25 5 28 2 3 -3 23 -7 45 -9 107 -8 224 -109 256 -221 13 -48 16 -71 15 -148
-2 -89 -2 -92 0 -120 1 -11 1 -82 0 -158 0 -76 2 -142 5 -147 3 -5 1 -11 -5
-15 -6 -4 -8 -10 -6 -14 5 -7 7 -96 5 -156 -1 -37 -41 -146 -55 -152 -8 -3
-14 -11 -14 -17 0 -24 -109 -102 -152 -110 -13 -3 -23 -5 -23 -6 0 -11 -694
-18 -712 -7 -5 3 -15 2 -23 -3 -8 -5 -21 -5 -30 0 -9 5 -22 5 -30 0 -8 -5 -21
-5 -30 0 -9 5 -22 5 -29 0 -8 -4 -27 -4 -42 0 -16 5 -29 5 -29 0 0 -5 -13 -5
-29 0 -15 4 -34 4 -41 0 -7 -5 -19 -6 -25 -4 -14 6 -27 -33 -14 -41 4 -3 4
-16 -1 -30 -6 -15 -6 -27 0 -30 5 -3 6 -15 1 -28 -5 -12 -5 -34 0 -49 4 -16 4
-28 -1 -28 -5 0 -5 -13 0 -30 5 -17 5 -30 0 -30 -5 0 -5 -13 0 -30 5 -17 5
-30 0 -30 -5 0 -5 -13 0 -30 5 -18 5 -30 0 -30 -6 0 -6 -10 0 -24 5 -13 6 -27
3 -30 -8 -8 -9 -76 -1 -76 4 0 3 -13 -2 -30 -5 -16 -5 -30 -1 -30 4 0 5 -22 1
-50 -3 -27 -3 -55 1 -62 4 -6 3 -20 -2 -29 -6 -11 -5 -20 1 -24 5 -3 6 -15 1
-28 -5 -12 -5 -34 0 -49 4 -16 4 -28 -1 -28 -5 0 -5 -13 0 -30 5 -17 5 -30 0
-30 -5 0 -5 -13 0 -30 5 -17 5 -30 0 -30 -5 0 -5 -13 0 -30 5 -18 5 -30 0 -30
-6 0 -6 -10 0 -24 5 -13 6 -27 3 -30 -8 -8 -9 -76 -1 -76 4 0 3 -13 -2 -30 -5
-16 -5 -30 -1 -30 4 0 5 -22 1 -50 -3 -27 -3 -55 1 -62 4 -6 3 -20 -2 -29 -6
-11 -5 -20 1 -24 5 -3 6 -15 1 -28 -5 -12 -5 -34 0 -49 4 -16 4 -28 -1 -28 -5
0 -5 -13 0 -30 5 -17 5 -30 0 -30 -5 0 -5 -13 0 -30 5 -17 5 -30 0 -30 -5 0
-5 -13 0 -30 5 -18 5 -30 0 -30 -6 0 -6 -10 0 -24 5 -13 6 -27 3 -30 -8 -8 -9
-76 -1 -76 4 0 3 -13 -2 -30 -5 -16 -5 -30 -1 -30 4 0 5 -22 1 -50 -3 -27 -3
-55 1 -62 4 -6 3 -20 -2 -29 -6 -11 -5 -20 1 -24 5 -3 6 -15 1 -28 -5 -12 -5
-34 0 -49 4 -16 4 -28 -1 -28 -5 0 -5 -13 0 -30 5 -17 5 -30 0 -30 -5 0 -5
-13 0 -29 4 -16 5 -32 2 -36 -4 -3 -7 -18 -8 -33 -1 -15 -2 -27 -3 -27 -2 0
-4 -10 -7 -22 -14 -75 -110 -173 -202 -204 -34 -11 -68 -19 -75 -16 -6 2 -22
0 -34 -4 -13 -5 -23 -5 -23 0 0 5 -15 5 -34 1 -19 -4 -40 -4 -46 0 -7 4 -26 4
-41 0 -16 -5 -29 -6 -29 -2 0 8 -68 7 -76 -1 -3 -3 -16 -2 -28 3 -13 4 -29 4
-36 0 -8 -5 -21 -5 -29 -1 -8 5 -27 5 -43 1 -15 -5 -28 -6 -28 -2 0 4 -29 7
-65 7 -36 0 -65 -4 -65 -8 0 -5 -4 -6 -9 -3 -5 3 -44 7 -88 9 -43 2 -87 9 -98
14 -11 6 -33 17 -50 24 -73 34 -151 146 -159 228 -2 23 -6 45 -9 48 -3 3 -2
16 3 29 6 15 6 24 0 24 -6 0 -6 9 0 25 6 16 6 25 0 25 -6 0 -6 9 0 25 5 14 6
25 2 25 -4 0 -7 11 -7 25 0 14 3 25 7 25 4 0 3 11 -2 25 -6 15 -6 26 1 30 5 4
6 11 3 17 -10 17 -11 51 -2 71 6 11 5 17 -2 17 -8 0 -8 6 0 20 8 14 8 20 0 20
-8 0 -8 6 0 20 8 14 8 20 0 20 -8 0 -8 6 0 20 8 14 8 20 0 20 -8 0 -8 6 0 20
8 14 8 20 0 20 -8 0 -8 6 0 20 8 14 8 20 0 20 -8 0 -8 6 0 20 8 14 8 20 0 20
-8 0 -8 6 0 20 7 14 8 26 0 39 -6 13 -7 22 0 26 5 3 6 15 1 28 -5 13 -5 30 0
39 6 11 5 19 -1 23 -7 4 -7 12 0 25 7 13 7 21 0 25 -7 4 -7 13 0 26 6 10 7 19
3 19 -4 0 -8 29 -8 65 0 36 3 65 7 65 4 0 3 11 -2 25 -6 16 -6 25 0 25 6 0 6
9 0 25 -6 16 -6 25 0 25 6 0 6 9 0 25 -6 15 -6 26 1 30 6 4 6 13 0 23 -6 10
-6 23 0 34 5 10 6 18 2 18 -10 0 -8 63 2 79 3 6 1 11 -5 11 -8 0 -8 6 0 20 8
14 8 20 0 20 -8 0 -8 6 0 20 8 14 8 20 0 20 -8 0 -8 6 0 20 8 14 8 20 0 20 -8
0 -8 6 0 20 8 14 8 20 0 20 -8 0 -8 6 0 20 8 14 8 20 0 20 -8 0 -8 6 0 20 8
14 8 20 0 20 -8 0 -8 6 0 20 7 14 8 26 0 39 -7 14 -7 22 0 26 6 4 7 12 3 18
-8 13 -7 93 2 106 3 6 1 12 -5 16 -7 4 -7 12 0 25 6 12 7 21 0 25 -6 4 -6 15
0 30 5 14 6 25 2 25 -9 0 -8 58 1 66 3 4 2 15 -3 25 -7 12 -7 20 0 24 7 4 7
12 0 25 -6 11 -6 21 -1 25 6 3 6 17 1 35 -5 18 -5 30 0 30 6 0 6 10 0 25 -6
15 -6 26 0 30 6 4 7 13 1 23 -4 9 -6 22 -4 28 4 12 -42 26 -52 16 -10 -10 -35
-11 -40 -1 -3 4 -16 4 -30 -1 -15 -6 -27 -6 -30 0 -3 6 -15 6 -30 0 -15 -6
-27 -6 -30 0 -3 6 -15 6 -30 0 -15 -6 -27 -6 -30 0 -3 6 -15 6 -30 0 -15 -6
-27 -6 -30 0 -3 6 -15 6 -30 0 -15 -6 -27 -6 -30 0 -3 6 -15 6 -30 0 -15 -6
-27 -6 -30 0 -3 6 -15 6 -30 0 -15 -6 -27 -6 -30 0 -3 6 -15 6 -30 0 -15 -6
-27 -6 -30 0 -3 6 -15 6 -30 0 -15 -6 -27 -6 -30 0 -3 6 -15 6 -30 0 -15 -6
-27 -6 -30 0 -3 6 -15 6 -30 0 -14 -5 -27 -5 -30 0 -3 5 -18 5 -35 0 -17 -5
-30 -5 -30 0 0 5 -13 5 -30 0 -16 -5 -30 -5 -30 0 0 4 -16 4 -34 0 -19 -4 -36
-6 -38 -4 -2 1 -26 6 -53 10 -66 8 -126 38 -172 83 -44 43 -75 81 -67 81 4 0
1 7 -6 15 -7 8 -9 15 -5 15 4 0 2 6 -4 14 -6 7 -14 46 -17 86 -3 41 -7 76 -9
80 -2 3 0 12 5 19 4 8 4 27 0 42 -5 16 -5 31 0 34 5 3 5 18 0 34 -4 15 -4 34
0 41 4 6 4 27 0 46 -4 19 -4 36 0 39 5 3 5 18 1 33 -5 15 -5 36 -1 47 4 11 4
31 0 45 -4 14 -4 34 0 45 4 11 4 29 0 41 -5 11 -5 27 0 34 4 7 5 23 0 34 -4
11 -4 33 0 48 5 14 6 29 3 32 -3 2 5 34 16 69 34 100 141 197 231 209 14 2 30
7 37 11 6 4 14 3 18 -2 4 -7 15 -7 30 -1 16 6 25 6 25 -1 0 -6 7 -6 19 1 13 7
22 7 26 0 4 -7 12 -7 23 -1 9 5 23 6 32 1 9 -5 22 -5 30 0 8 5 22 4 32 -1 10
-5 18 -6 18 -2 0 4 14 8 30 8 17 0 30 -3 30 -7 0 -4 11 -3 25 2 16 6 25 6 25
-1 0 -6 6 -6 18 0 10 6 24 6 32 1 8 -5 21 -5 29 0 9 5 23 4 33 -1 10 -5 18 -6
18 -2 0 4 14 8 30 8 17 0 30 -4 30 -8 0 -4 9 -3 19 3 13 7 22 7 26 0 4 -7 12
-7 23 -1 9 5 23 6 32 1 9 -5 22 -5 30 0 8 5 22 4 32 -1 10 -5 18 -6 18 -2 0 4
14 8 30 8 17 0 30 -3 30 -7 0 -4 11 -3 25 2 16 6 25 6 25 -1 0 -6 6 -6 18 0
10 5 24 6 32 1 7 -4 24 -4 36 0 13 5 26 5 29 1 3 -5 14 -7 26 -4 11 3 17 9 12
12 -11 8 -13 41 -2 41 5 0 5 10 0 23 -5 14 -5 30 0 40 7 11 6 17 0 17 -7 0 -7
8 -1 25 6 15 6 26 0 30 -7 4 -6 13 0 25 6 12 7 21 0 25 -6 4 -6 15 0 30 5 14
6 25 2 25 -9 0 -8 58 1 66 3 4 2 15 -3 25 -7 12 -7 20 0 24 7 4 7 12 0 25 -6
11 -6 21 -1 25 6 3 6 17 1 35 -5 18 -5 30 0 30 6 0 6 10 0 25 -6 15 -6 26 0
30 6 4 7 14 2 23 -9 19 -8 54 2 71 4 6 2 11 -4 11 -8 0 -8 6 0 20 8 14 8 20 0
20 -8 0 -8 6 0 20 8 14 8 20 0 20 -8 0 -8 6 0 20 8 14 8 20 0 20 -8 0 -8 6 0
20 8 14 8 20 0 20 -8 0 -8 6 0 20 8 14 8 20 0 20 -8 0 -8 6 0 20 8 14 8 20 0
20 -6 0 -8 5 -5 11 4 5 9 31 10 57 4 52 6 62 25 110 6 17 16 32 21 32 5 0 9 6
9 13 0 18 77 86 120 105 40 18 47 19 115 28 28 3 51 8 53 9 2 2 17 -1 33 -5
16 -5 29 -6 29 -2z m-2605 -6399 c-3 6 6 6 25 1 16 -5 30 -6 30 -2 0 4 11 7
25 7 14 0 25 -3 25 -7 0 -4 11 -3 25 2 15 6 26 6 30 -1 4 -5 12 -6 18 -2 14 8
93 7 107 -2 6 -3 10 -3 10 2 0 4 11 8 25 8 14 0 25 -3 25 -7 0 -4 11 -3 25 2
15 6 26 6 30 -1 4 -6 13 -6 23 0 9 5 26 5 40 0 14 -5 21 -5 17 0 -3 6 6 6 25
1 16 -5 30 -6 30 -2 0 4 11 7 25 7 14 0 25 -3 25 -7 0 -4 11 -3 25 2 15 6 26
6 30 -1 4 -5 12 -6 18 -2 14 8 93 7 107 -2 6 -3 10 -3 10 2 0 4 11 8 25 8 14
0 25 -3 25 -7 0 -4 11 -3 25 2 15 6 26 6 30 -1 4 -6 13 -6 23 0 9 5 26 5 40 0
14 -5 21 -5 17 0 -3 6 6 6 25 1 16 -5 30 -6 30 -2 0 4 11 7 25 7 14 0 25 -3
25 -7 0 -4 11 -3 25 2 15 6 26 6 30 -1 4 -5 12 -6 18 -2 14 8 93 7 107 -2 6
-3 10 -3 10 2 0 4 11 8 25 8 14 0 25 -3 25 -7 0 -4 11 -3 25 2 15 6 26 6 30
-1 4 -6 13 -6 23 0 9 5 26 5 40 0 14 -5 21 -5 17 0 -3 6 6 6 25 1 16 -5 30 -6
30 -2 0 4 11 7 25 7 14 0 25 -3 25 -7 0 -4 11 -3 25 2 15 6 26 6 30 -1 4 -5
12 -6 18 -2 14 8 93 7 107 -2 6 -3 10 -3 10 2 0 4 11 8 25 8 14 0 25 -3 25 -7
0 -4 11 -3 25 2 15 6 26 6 30 -1 4 -6 13 -6 23 0 9 5 26 5 40 0 14 -5 21 -5
17 0 -3 6 6 6 25 1 16 -5 30 -6 30 -2 0 4 11 7 25 7 14 0 25 -3 25 -7 0 -4 11
-3 25 2 15 6 26 6 30 -1 4 -5 12 -6 18 -2 14 8 93 7 107 -2 6 -3 10 -3 10 2 0
4 11 8 25 8 14 0 25 -3 25 -7 0 -4 11 -3 25 2 15 6 26 6 30 -1 4 -5 11 -6 17
-3 16 10 67 11 61 2 -2 -5 7 -4 21 2 16 6 26 6 26 0 0 -6 9 -6 24 0 15 5 27 5
34 -2 7 -7 16 -6 30 1 15 8 23 8 27 1 4 -7 11 -7 18 -2 7 5 21 6 32 2 11 -4
30 -4 43 1 14 5 22 5 22 -2 0 -6 7 -6 19 1 14 7 22 7 26 0 4 -7 11 -7 18 -2 7
5 21 6 32 2 11 -4 30 -4 43 1 14 5 22 5 22 -2 0 -6 7 -6 19 1 14 7 22 7 26 0
4 -7 11 -7 18 -2 7 5 21 6 32 2 11 -4 30 -4 43 1 14 5 22 5 22 -2 0 -6 7 -6
19 1 14 7 22 7 26 0 4 -7 11 -7 18 -2 7 5 21 6 32 2 11 -4 30 -4 43 1 14 5 22
5 22 -2 0 -6 7 -6 19 1 14 7 22 7 26 0 4 -7 11 -7 18 -2 7 5 21 6 32 2 11 -4
30 -4 43 1 14 5 22 5 22 -2 0 -6 7 -6 19 1 14 7 22 7 26 0 4 -7 11 -7 18 -2 7
5 21 6 32 2 11 -4 30 -4 43 1 14 5 22 5 22 -2 0 -6 7 -6 19 1 14 7 22 7 26 0
4 -7 11 -7 18 -2 7 5 21 6 32 2 11 -4 30 -4 43 1 14 5 22 5 22 -2 0 -6 7 -6
19 1 14 7 22 7 26 0 4 -7 11 -7 18 -2 7 5 21 6 32 2 11 -4 30 -4 43 1 14 5 22
5 22 -2 0 -6 7 -6 19 1 14 7 22 7 26 0 4 -7 11 -7 18 -2 7 5 21 6 32 2 11 -4
30 -4 43 1 14 5 22 5 22 -2 0 -6 7 -6 19 1 14 7 22 7 26 0 4 -7 11 -7 18 -2 7
5 21 6 32 2 11 -4 30 -4 43 1 14 5 22 5 22 -2 0 -6 7 -6 19 1 14 7 22 7 26 0
4 -7 11 -7 18 -2 7 5 21 6 32 2 11 -4 30 -4 43 1 14 5 22 5 22 -2 0 -6 7 -6
19 1 14 7 22 7 26 0 4 -7 11 -7 18 -2 7 5 21 6 32 2 11 -4 30 -4 43 1 14 5 22
5 22 -2 0 -6 7 -6 19 1 14 7 22 7 26 0 4 -7 11 -7 18 -2 7 5 21 6 32 2 11 -4
30 -4 43 1 14 5 22 5 22 -2 0 -6 7 -6 19 1 14 7 22 7 26 0 4 -7 11 -7 18 -2 7
5 21 6 32 2 11 -4 30 -4 43 1 14 5 22 5 22 -2 0 -6 7 -6 19 1 14 7 22 7 26 0
4 -7 11 -7 18 -2 7 5 21 6 32 2 11 -4 30 -4 43 1 14 5 22 5 22 -2 0 -6 7 -6
19 1 14 7 22 7 27 -1 4 -7 10 -7 16 -1 7 7 19 7 33 2 13 -5 25 -6 28 -4 9 9
71 10 90 2 10 -5 17 -5 17 1 0 7 9 7 25 1 14 -5 25 -6 25 -2 0 9 63 8 78 -2 6
-3 13 -2 17 4 4 7 12 7 25 0 12 -6 21 -7 25 0 4 6 15 6 31 0 14 -6 23 -7 21
-2 -3 4 8 7 24 7 16 0 29 -4 29 -8 0 -4 8 -4 17 2 10 5 26 5 40 0 14 -5 23 -5
23 1 0 6 10 6 26 0 14 -6 23 -7 21 -2 -3 4 8 7 24 7 16 0 29 -3 29 -7 0 -5 6
-7 12 -5 10 1 13 -137 13 -632 l0 -635 -27 -7 c-16 -4 -28 -4 -28 1 0 4 -16 4
-35 0 -19 -4 -37 -4 -40 1 -3 4 -16 4 -29 -1 -12 -4 -29 -5 -36 0 -7 5 -24 4
-36 0 -14 -6 -26 -5 -29 0 -3 6 -15 6 -30 0 -15 -6 -25 -6 -25 0 0 5 -12 5
-30 0 -16 -5 -30 -5 -30 0 0 4 -16 4 -35 0 -19 -4 -37 -4 -40 1 -3 4 -16 4
-29 -1 -12 -4 -29 -5 -36 0 -7 4 -20 6 -27 3 -24 -9 -56 -10 -80 -1 -12 4 -25
3 -28 -2 -3 -6 -15 -6 -29 0 -13 5 -26 6 -30 3 -7 -7 -1335 -7 -1342 0 -4 3
-17 2 -30 -3 -14 -6 -26 -6 -29 0 -3 6 -15 6 -30 0 -15 -6 -27 -6 -30 0 -3 6
-15 6 -30 0 -15 -6 -27 -6 -30 0 -3 6 -15 6 -30 0 -15 -6 -27 -6 -30 0 -3 6
-15 6 -30 0 -15 -6 -27 -6 -30 0 -3 6 -15 6 -30 0 -15 -6 -27 -6 -30 0 -3 6
-15 6 -30 0 -15 -6 -27 -6 -30 0 -3 6 -15 6 -30 0 -15 -6 -27 -6 -30 0 -3 6
-15 6 -30 0 -15 -6 -27 -6 -30 0 -3 6 -15 6 -30 0 -15 -6 -27 -6 -30 0 -3 6
-15 6 -30 0 -15 -6 -27 -6 -30 0 -3 6 -15 6 -30 0 -15 -6 -27 -6 -30 0 -3 6
-15 6 -30 0 -15 -6 -27 -6 -30 0 -3 6 -15 6 -30 0 -15 -6 -27 -6 -30 0 -3 6
-15 6 -30 0 -15 -6 -27 -6 -30 0 -3 6 -15 6 -30 0 -15 -6 -27 -6 -30 0 -3 6
-15 6 -29 0 -13 -5 -27 -6 -30 -3 -8 8 -102 7 -116 -2 -5 -3 -10 -2 -10 4 0 6
-11 6 -30 1 -17 -5 -30 -5 -30 0 0 4 -16 4 -35 0 -19 -4 -37 -4 -40 1 -3 4
-16 4 -29 -1 -12 -4 -29 -5 -36 0 -7 5 -24 4 -36 0 -14 -6 -26 -5 -29 0 -3 6
-15 6 -30 0 -15 -6 -25 -6 -25 0 0 5 -12 5 -30 0 -17 -5 -30 -5 -30 0 0 4 -16
4 -35 0 -19 -4 -37 -4 -40 1 -3 4 -16 4 -29 -1 -12 -4 -29 -5 -36 0 -7 5 -24
4 -36 0 -14 -6 -26 -5 -29 0 -3 6 -15 6 -30 0 -15 -6 -25 -6 -25 0 0 5 -12 5
-30 0 -16 -5 -30 -5 -30 0 0 4 -16 4 -35 0 -19 -4 -37 -4 -40 1 -3 4 -16 4
-29 -1 -12 -4 -29 -5 -36 0 -7 5 -24 4 -36 0 -14 -6 -26 -5 -29 0 -3 6 -15 6
-30 0 -15 -6 -25 -6 -25 0 0 5 -12 5 -30 0 -16 -5 -30 -5 -30 0 0 4 -16 4 -35
0 -19 -4 -37 -4 -40 1 -3 4 -16 4 -29 -1 -12 -4 -29 -5 -36 0 -7 5 -23 5 -34
1 -23 -8 -56 -7 -80 2 -8 3 -18 2 -21 -3 -3 -6 -15 -6 -30 0 -15 6 -27 6 -30
0 -3 -6 -15 -6 -30 0 -15 6 -27 6 -30 0 -3 -6 -15 -6 -30 0 -15 6 -27 6 -30 0
-3 -6 -15 -6 -30 0 -15 6 -27 6 -30 0 -3 -6 -15 -6 -30 0 -15 6 -27 6 -30 0
-3 -6 -15 -6 -30 0 -15 6 -27 6 -30 0 -3 -6 -15 -6 -30 0 -15 6 -27 6 -30 0
-3 -6 -15 -6 -30 0 -15 6 -27 6 -30 0 -3 -6 -15 -6 -30 0 -15 6 -27 6 -30 0
-3 -6 -15 -6 -30 0 -15 6 -27 6 -30 0 -3 -6 -15 -6 -30 0 -15 6 -27 6 -30 0
-3 -6 -15 -6 -30 0 -15 6 -27 6 -30 0 -3 -6 -15 -6 -30 0 -15 6 -27 6 -30 0
-3 -6 -15 -6 -30 0 -15 6 -27 6 -30 0 -3 -6 -15 -6 -30 0 -15 6 -27 6 -30 0
-3 -6 -15 -6 -30 0 -15 6 -27 6 -30 0 -3 -6 -15 -6 -30 0 -15 6 -27 6 -30 0
-3 -6 -15 -6 -30 0 -15 6 -27 6 -30 0 -3 -6 -15 -6 -30 0 -15 6 -27 6 -30 0
-3 -5 -15 -6 -29 0 -12 4 -29 4 -36 0 -8 -5 -19 -6 -24 -3 -5 4 -33 8 -60 10
-46 2 -91 9 -91 13 0 1 -8 3 -17 5 -173 33 -357 200 -408 370 -6 22 -14 47
-17 55 -8 20 -16 87 -17 133 -1 20 -4 37 -8 37 -4 0 -3 13 2 29 4 15 4 34 0
42 -5 7 -6 18 -2 24 3 5 7 15 8 20 8 39 12 55 23 94 47 166 178 315 343 390
65 29 138 52 148 46 5 -3 11 -1 14 3 3 5 26 9 52 8 25 -1 48 2 50 6 3 4 16 3
30 -2 15 -6 23 -6 19 -1z"/>
</g>
</svg>
